<?xml version="1.0" encoding="UTF-8" ?>
<!DOCTYPE svg PUBLIC "-//W3C//DTD SVG 1.1//EN" "http://www.w3.org/Graphics/SVG/1.1/DTD/svg11.dtd">
<svg width="679pt" height="453pt" viewBox="0 0 679 453" version="1.1" xmlns="http://www.w3.org/2000/svg">
<g id="#0c77aaff">
<path fill="#0c77aa" opacity="1.00" d=" M 355.31 40.14 C 357.11 40.12 358.92 40.11 360.73 40.10 C 360.61 49.20 360.89 58.30 360.58 67.40 C 361.53 68.67 362.51 69.93 363.55 71.14 C 363.60 73.84 363.61 76.55 363.59 79.25 C 364.59 79.75 365.59 80.25 366.60 80.75 C 366.55 81.40 366.45 82.70 366.40 83.36 C 367.08 83.48 368.45 83.72 369.14 83.84 C 369.29 84.41 369.60 85.55 369.75 86.12 C 373.37 88.44 376.21 91.79 379.97 93.91 C 381.68 94.93 383.38 95.98 384.93 97.23 C 387.06 99.10 389.49 100.57 392.06 101.75 C 393.40 102.61 394.76 103.44 396.10 104.31 C 396.57 104.38 397.51 104.53 397.98 104.60 C 400.06 106.16 402.42 107.29 404.87 108.18 C 407.35 109.45 409.88 110.65 412.53 111.55 C 412.54 111.78 412.58 112.24 412.60 112.47 C 413.18 112.57 414.35 112.76 414.93 112.86 C 416.52 113.52 418.15 114.10 419.78 114.68 C 421.42 115.57 423.12 116.34 424.82 117.11 C 427.68 117.84 430.43 118.97 433.09 120.22 C 436.15 121.43 439.47 121.91 442.38 123.47 C 443.07 123.55 444.45 123.70 445.14 123.78 C 445.71 124.27 446.28 124.77 446.87 125.27 C 447.64 125.27 449.19 125.28 449.96 125.28 C 451.04 126.78 452.73 127.10 454.47 126.98 C 455.06 127.35 456.24 128.09 456.82 128.45 C 458.35 128.44 459.89 128.42 461.43 128.41 C 461.43 128.85 461.42 129.73 461.42 130.17 C 463.71 130.34 466.20 130.07 468.17 131.54 C 469.93 131.60 471.69 131.61 473.46 131.63 C 473.43 132.03 473.36 132.84 473.33 133.25 C 477.57 133.41 481.55 135.23 485.85 134.86 C 488.36 137.82 492.58 136.31 495.94 136.65 C 495.92 138.20 495.91 139.76 495.91 141.31 C 494.32 141.36 492.74 141.40 491.17 141.48 C 489.10 142.56 486.90 143.33 484.83 144.37 C 483.69 144.41 482.56 144.45 481.43 144.49 C 481.13 144.80 480.52 145.43 480.22 145.74 C 479.40 145.75 477.75 145.77 476.93 145.78 C 476.53 146.27 475.74 147.26 475.34 147.75 C 474.13 147.71 472.93 147.66 471.73 147.61 C 471.31 148.00 470.48 148.78 470.07 149.17 C 469.27 149.22 467.68 149.32 466.89 149.37 C 466.44 149.82 465.53 150.72 465.08 151.16 C 464.01 151.16 462.94 151.15 461.88 151.15 C 461.50 151.47 460.74 152.10 460.36 152.42 C 459.17 152.41 458.00 152.40 456.83 152.40 C 456.45 152.88 455.71 153.83 455.34 154.31 C 454.46 154.27 452.70 154.21 451.83 154.17 C 451.53 154.45 450.93 155.00 450.63 155.27 C 448.90 155.56 447.17 155.95 445.75 157.04 C 444.05 157.39 442.34 157.72 440.78 158.50 C 439.43 158.63 438.08 158.76 436.74 158.88 C 436.63 159.31 436.40 160.16 436.29 160.59 C 435.39 160.60 433.61 160.62 432.71 160.63 C 432.24 160.97 431.31 161.65 430.84 161.99 C 429.06 162.17 427.26 162.36 425.68 163.27 C 423.96 163.65 422.21 164.01 420.79 165.14 C 416.29 165.36 411.78 165.20 407.28 165.28 C 407.31 164.89 407.39 164.10 407.43 163.70 C 404.24 163.61 400.91 164.20 397.87 163.03 C 394.66 161.70 390.94 162.62 387.92 160.73 C 385.81 160.64 383.70 160.62 381.60 160.58 C 381.62 160.15 381.67 159.29 381.69 158.86 C 379.33 158.68 376.75 159.09 374.73 157.56 C 373.54 157.47 372.35 157.40 371.17 157.32 C 370.12 155.55 368.05 155.50 366.27 155.12 C 364.69 154.62 363.07 154.25 361.46 153.90 C 361.45 153.57 361.43 152.92 361.42 152.59 C 360.80 152.51 359.56 152.34 358.94 152.26 C 352.14 149.68 345.96 145.83 339.89 141.88 C 338.19 140.84 336.46 139.85 334.76 138.81 C 332.37 137.17 330.11 135.35 328.00 133.36 C 327.35 133.42 326.70 133.48 326.06 133.55 C 324.75 134.47 323.42 135.37 322.10 136.28 C 317.36 138.57 313.11 141.72 308.51 144.27 C 301.14 148.83 293.40 152.76 285.95 157.21 C 285.48 157.32 284.54 157.55 284.07 157.67 C 282.10 158.80 280.13 159.91 278.12 160.97 C 273.47 163.48 268.43 165.25 264.05 168.22 C 262.26 169.01 260.44 169.73 258.59 170.34 C 258.59 170.65 258.60 171.29 258.61 171.60 C 257.97 171.63 256.69 171.69 256.06 171.72 C 255.63 172.04 254.77 172.68 254.34 173.00 C 253.23 173.46 252.15 173.94 251.07 174.44 C 249.65 174.87 248.25 175.32 246.85 175.78 C 245.85 176.44 244.86 177.11 243.88 177.79 C 242.15 178.49 240.45 179.23 238.72 179.91 C 238.35 180.20 237.62 180.79 237.25 181.08 C 234.93 181.60 232.68 182.39 230.38 182.99 C 230.35 183.26 230.28 183.81 230.25 184.09 C 223.02 186.11 216.26 189.42 209.32 192.24 C 208.78 192.34 207.68 192.55 207.14 192.66 C 205.43 193.54 203.67 194.32 201.94 195.18 C 199.07 195.91 196.20 196.87 193.79 198.63 C 192.78 198.70 191.77 198.78 190.77 198.85 C 190.23 199.12 189.15 199.65 188.62 199.91 C 187.27 200.43 185.98 201.08 184.74 201.83 C 183.12 202.16 181.49 202.45 179.87 202.83 C 178.57 203.54 177.26 204.22 175.94 204.89 C 174.33 205.24 172.72 205.61 171.16 206.13 C 169.52 206.56 167.92 207.15 166.61 208.26 C 165.75 208.43 164.91 208.60 164.06 208.78 C 162.48 209.49 160.78 209.80 159.09 210.08 C 158.68 210.32 157.84 210.80 157.43 211.04 C 155.75 211.40 154.08 211.85 152.67 212.86 C 149.90 213.30 147.25 214.22 144.58 215.04 C 143.91 215.38 143.25 215.72 142.58 216.06 C 139.99 216.54 137.50 217.43 134.91 217.92 C 134.51 218.28 133.72 218.99 133.32 219.35 C 130.31 219.38 127.66 220.82 124.85 221.69 C 120.34 222.13 115.78 221.87 111.28 221.37 C 110.79 220.93 109.82 220.03 109.33 219.58 C 108.31 219.53 107.30 219.46 106.29 219.40 C 105.07 217.78 103.06 217.61 101.22 217.33 C 100.94 217.08 100.38 216.57 100.10 216.32 C 99.24 216.33 97.52 216.34 96.66 216.34 C 96.28 215.90 95.52 215.02 95.13 214.57 C 84.39 213.85 73.65 216.08 62.95 214.33 C 58.09 212.68 53.52 210.37 48.96 208.05 C 46.91 206.81 44.77 205.69 42.60 204.69 C 42.48 204.23 42.26 203.33 42.15 202.87 C 40.19 201.56 38.32 200.13 36.39 198.79 C 36.36 198.23 36.30 197.12 36.28 196.56 C 34.81 196.41 33.35 196.29 31.88 196.21 C 33.28 195.57 33.76 194.47 33.32 192.92 C 32.08 192.31 30.82 191.74 29.55 191.21 C 29.61 184.65 28.90 178.12 29.19 171.56 C 30.84 171.60 32.49 171.64 34.14 171.70 C 37.95 173.65 41.95 175.47 46.36 174.77 C 46.83 175.15 47.77 175.92 48.24 176.30 C 57.93 176.28 67.63 176.26 77.32 176.31 C 78.12 175.77 78.91 175.24 79.70 174.71 C 83.63 174.78 87.55 174.77 91.47 174.75 C 91.49 174.36 91.51 173.58 91.52 173.20 C 95.12 173.05 99.09 173.96 102.28 171.80 C 104.86 171.30 108.56 172.74 110.00 169.78 C 112.07 169.75 114.14 169.76 116.22 169.77 C 116.52 169.43 117.14 168.75 117.45 168.41 C 119.07 168.45 120.70 168.48 122.33 168.52 C 123.10 167.87 123.88 167.23 124.66 166.60 C 125.72 166.53 126.78 166.46 127.84 166.39 C 131.16 164.96 134.74 164.30 138.22 163.41 C 138.62 163.13 139.40 162.56 139.79 162.27 C 141.61 162.19 143.40 161.79 145.01 160.91 C 146.08 160.65 147.16 160.41 148.25 160.18 C 148.46 159.89 148.88 159.33 149.09 159.05 C 150.73 158.69 152.38 158.31 153.94 157.64 C 155.01 157.49 156.09 157.35 157.17 157.21 C 157.51 156.78 158.19 155.92 158.53 155.49 C 159.12 155.46 160.32 155.41 160.91 155.38 C 162.59 154.49 164.46 154.17 166.32 153.86 C 166.35 153.48 166.42 152.71 166.45 152.32 C 167.11 152.33 168.42 152.36 169.07 152.37 C 172.99 150.13 177.28 148.76 181.56 147.42 C 181.87 147.08 182.50 146.42 182.81 146.09 C 184.32 145.72 185.84 145.35 187.29 144.79 C 187.76 144.68 188.69 144.48 189.15 144.38 C 190.82 143.43 192.51 142.54 194.14 141.51 C 194.71 141.46 195.86 141.34 196.44 141.29 C 197.13 140.83 197.83 140.37 198.53 139.91 C 199.69 139.43 200.84 138.92 201.98 138.38 C 202.44 138.29 203.37 138.11 203.84 138.02 C 204.29 137.79 205.19 137.33 205.64 137.11 C 206.76 136.46 207.88 135.79 208.98 135.10 C 210.95 134.39 212.91 133.64 214.91 132.99 C 215.98 132.44 217.06 131.91 218.15 131.40 C 219.77 130.54 221.40 129.71 222.96 128.76 C 227.00 126.97 230.94 124.97 235.02 123.28 C 238.74 121.59 242.49 119.94 245.97 117.78 C 247.98 116.82 249.99 115.84 251.90 114.68 C 254.88 113.04 257.81 111.30 260.94 109.93 C 261.95 109.29 262.95 108.65 263.96 107.99 C 265.52 107.28 267.08 106.56 268.66 105.87 C 268.63 105.52 268.58 104.84 268.55 104.49 C 269.18 104.47 270.44 104.42 271.07 104.40 C 272.38 103.53 273.73 102.70 275.08 101.86 C 278.08 100.39 280.92 98.62 283.66 96.70 C 283.96 96.60 284.56 96.40 284.87 96.29 C 286.18 95.06 287.53 93.87 288.87 92.66 C 289.91 92.08 290.95 91.49 291.99 90.89 C 292.79 90.25 293.60 89.61 294.41 88.98 C 294.42 87.88 294.43 86.78 294.43 85.68 C 295.24 85.62 296.84 85.49 297.65 85.43 C 297.40 83.92 297.17 82.41 296.90 80.91 C 298.12 80.18 299.33 79.43 300.55 78.68 C 300.27 76.97 299.96 75.27 299.64 73.58 C 300.68 73.16 301.72 72.75 302.77 72.34 C 302.71 69.49 302.70 66.64 302.68 63.79 C 303.41 63.60 304.88 63.23 305.61 63.05 C 305.74 59.01 305.29 54.93 305.90 50.91 C 308.70 50.30 311.58 50.59 314.39 51.00 C 314.36 54.37 314.36 57.73 314.35 61.10 C 315.15 61.49 316.77 62.28 317.58 62.67 C 317.33 63.28 316.82 64.49 316.57 65.10 C 317.29 65.90 318.02 66.71 318.75 67.52 C 319.26 67.59 320.28 67.74 320.79 67.82 C 320.57 68.90 320.36 69.98 320.15 71.07 C 321.20 71.32 322.26 71.56 323.32 71.81 C 323.35 72.46 323.42 73.75 323.45 74.40 C 325.45 75.41 327.82 76.59 329.74 74.73 C 330.35 74.57 331.57 74.25 332.18 74.09 C 332.17 73.42 332.14 72.09 332.13 71.42 C 332.77 71.38 334.05 71.30 334.69 71.26 C 334.64 70.55 334.54 69.12 334.49 68.40 C 335.25 68.35 336.77 68.25 337.52 68.19 C 337.50 67.05 337.48 65.91 337.46 64.76 C 338.21 64.71 339.70 64.61 340.45 64.56 C 340.45 63.83 340.45 62.37 340.46 61.65 C 341.50 61.09 342.55 60.52 343.60 59.96 C 343.57 59.22 343.50 57.75 343.47 57.01 C 344.28 56.86 345.90 56.57 346.71 56.43 C 346.68 55.86 346.62 54.72 346.59 54.15 C 347.56 53.53 348.54 52.91 349.52 52.29 C 349.51 51.43 349.48 49.71 349.47 48.85 C 350.47 48.77 351.46 48.69 352.47 48.61 C 352.43 47.30 352.39 45.98 352.37 44.66 C 353.12 44.53 354.63 44.26 355.38 44.12 C 355.35 42.80 355.33 41.47 355.31 40.14 Z" />
<path fill="#0c77aa" opacity="1.00" d=" M 343.00 192.58 C 352.78 190.09 363.18 192.06 371.87 197.00 C 378.61 199.76 380.00 207.55 382.26 213.64 C 383.46 218.00 386.10 222.28 385.17 226.96 C 384.20 232.11 385.19 237.53 383.39 242.53 C 381.93 247.26 379.25 251.45 377.02 255.83 C 373.86 261.54 370.62 267.25 366.50 272.33 C 355.54 282.98 343.80 293.26 329.80 299.72 C 326.24 301.40 323.44 304.43 319.62 305.61 C 303.91 310.91 288.09 315.87 272.25 320.76 C 274.22 328.79 276.79 336.81 280.96 343.99 C 282.60 346.95 285.18 349.21 286.99 352.04 C 297.99 360.46 311.90 366.37 325.98 364.32 C 331.38 363.68 336.38 361.38 341.64 360.11 C 348.54 358.39 354.43 354.14 361.28 352.24 C 361.40 351.70 361.64 350.63 361.76 350.10 C 365.74 348.57 368.99 345.72 372.84 343.96 C 378.34 339.59 384.43 336.00 389.84 331.55 C 395.94 325.11 402.89 319.51 408.09 312.26 C 412.10 309.09 415.14 304.82 417.89 300.54 C 418.92 300.17 419.96 299.80 421.01 299.44 C 421.90 297.87 422.82 296.32 423.74 294.77 C 424.13 294.75 424.92 294.70 425.31 294.68 C 425.32 295.23 425.34 296.34 425.35 296.89 C 421.09 304.92 416.37 312.76 410.48 319.72 C 425.22 308.71 439.79 297.46 454.41 286.29 C 489.02 261.00 526.58 239.18 567.24 225.24 C 572.56 223.03 578.24 221.99 583.95 221.41 C 594.22 219.90 604.60 219.05 615.00 219.20 C 622.09 219.32 629.50 219.84 636.00 222.96 C 640.29 224.91 642.56 230.07 641.34 234.58 C 639.81 240.49 635.95 245.41 632.16 250.05 C 628.25 255.00 622.57 258.02 617.28 261.24 C 595.60 273.97 570.73 280.14 545.97 283.17 C 545.48 282.75 544.50 281.91 544.01 281.49 C 538.07 282.04 532.32 283.74 526.75 285.80 C 508.92 293.85 492.40 304.45 476.14 315.27 C 444.26 336.94 413.47 360.21 383.76 384.76 C 381.34 386.74 378.80 388.64 375.88 389.82 C 364.41 394.91 353.22 401.05 340.84 403.63 C 335.07 405.13 329.08 405.51 323.26 406.78 C 302.28 410.94 280.02 406.31 261.88 395.18 C 257.96 391.72 253.44 388.56 250.89 383.87 C 242.32 377.46 238.92 366.95 235.64 357.23 C 232.38 347.52 228.08 338.00 227.46 327.64 C 227.11 327.33 226.41 326.70 226.06 326.39 C 218.72 326.44 211.38 326.64 204.06 326.07 C 193.35 324.22 182.00 324.50 171.97 319.87 C 170.08 319.68 168.15 319.46 166.41 318.61 C 156.92 314.40 147.36 310.33 138.00 305.83 C 135.23 304.49 133.09 302.21 130.87 300.14 C 128.09 297.61 127.36 293.75 126.17 290.36 C 124.75 287.43 128.39 284.87 127.36 281.91 C 126.71 278.12 125.04 274.57 124.49 270.78 C 125.60 269.40 127.14 268.50 128.56 267.49 C 139.94 268.87 149.30 277.52 161.05 277.28 C 161.66 277.05 162.89 276.57 163.50 276.33 C 161.29 275.19 159.04 274.11 156.80 273.04 C 155.51 270.09 154.16 267.13 153.44 263.99 C 153.72 262.05 155.02 260.46 155.87 258.75 C 158.18 258.12 160.50 257.00 162.95 257.48 C 169.22 258.48 175.64 259.17 181.52 261.71 C 184.52 263.08 188.01 262.37 190.95 263.96 C 195.05 266.05 199.72 266.35 203.91 268.17 C 207.80 269.83 212.14 269.68 216.15 270.98 C 221.93 272.88 228.17 272.01 233.93 273.97 C 232.35 276.99 228.76 277.35 225.82 278.18 C 222.14 278.69 218.39 279.67 214.68 278.87 C 213.73 279.24 212.80 279.62 211.86 280.00 C 221.12 282.44 230.82 283.04 240.29 281.55 C 245.43 272.16 250.68 262.82 256.82 254.03 C 260.74 251.91 262.04 247.27 265.42 244.52 C 269.85 238.73 275.20 233.76 280.66 228.95 C 285.57 223.75 291.30 219.42 297.08 215.24 C 301.02 210.56 306.76 208.19 311.60 204.63 C 313.99 202.73 316.88 201.74 319.68 200.63 C 327.06 196.94 335.07 194.74 343.00 192.58 M 339.31 210.39 C 333.06 212.04 327.38 215.17 321.39 217.51 C 313.58 221.62 306.57 227.15 300.40 233.44 C 296.89 236.58 293.60 240.00 290.82 243.82 C 285.78 252.22 280.58 260.58 276.67 269.59 C 276.02 271.39 276.44 273.37 276.34 275.25 C 281.49 273.52 286.92 272.74 292.03 270.82 C 300.43 267.76 309.16 265.44 317.01 261.08 C 321.11 259.71 325.07 258.04 328.53 255.42 C 334.36 253.50 338.58 248.99 343.51 245.59 C 349.52 240.20 356.16 235.06 359.68 227.56 C 362.38 223.20 363.73 217.64 361.54 212.78 C 360.16 208.22 354.52 208.69 350.77 207.90 C 346.94 208.68 343.06 209.28 339.31 210.39 Z" />
</g>
</svg>
