<?xml version="1.0" encoding="UTF-8" ?>
<!DOCTYPE svg PUBLIC "-//W3C//DTD SVG 1.1//EN" "http://www.w3.org/Graphics/SVG/1.1/DTD/svg11.dtd">
<svg width="1080pt" height="453pt" viewBox="0 0 1080 453" version="1.1" xmlns="http://www.w3.org/2000/svg">
    <g id="#0d77aaff">
        <path fill="#0d77aa" opacity="1.00"
              d=" M 355.31 40.13 C 357.12 40.12 358.92 40.11 360.73 40.10 C 360.61 49.20 360.89 58.29 360.58 67.38 C 361.51 68.68 362.50 69.93 363.54 71.15 C 363.61 73.85 363.61 76.55 363.59 79.25 C 364.58 79.76 365.59 80.26 366.60 80.74 C 366.55 81.38 366.45 82.65 366.40 83.29 C 366.97 83.44 368.10 83.74 368.67 83.89 C 371.42 88.17 375.91 90.96 379.91 93.96 C 381.19 94.71 382.50 95.38 383.78 96.12 C 386.14 98.53 388.97 100.43 392.08 101.71 C 393.42 102.59 394.75 103.46 396.11 104.32 C 396.58 104.38 397.51 104.52 397.98 104.59 C 400.05 106.16 402.41 107.30 404.87 108.17 C 407.34 109.46 409.87 110.65 412.53 111.54 C 412.54 111.78 412.57 112.26 412.59 112.49 C 413.18 112.57 414.37 112.73 414.96 112.81 C 416.90 113.66 418.91 114.36 420.82 115.29 C 426.19 117.66 431.81 119.40 437.19 121.77 C 438.97 122.06 440.75 122.43 442.33 123.37 C 442.95 123.54 444.19 123.87 444.81 124.03 C 446.47 124.76 448.23 125.20 450.00 125.60 C 453.39 127.70 457.53 128.24 461.44 128.59 C 461.44 128.97 461.43 129.74 461.42 130.12 C 465.55 130.03 469.31 132.08 473.46 131.71 C 473.43 132.10 473.36 132.87 473.33 133.25 C 477.57 133.40 481.55 135.22 485.85 134.87 C 488.37 137.82 492.58 136.32 495.94 136.65 C 495.92 138.20 495.91 139.75 495.91 141.30 C 494.26 141.37 492.62 141.40 490.99 141.52 C 488.99 142.61 486.84 143.36 484.81 144.38 C 483.68 144.41 482.55 144.44 481.43 144.49 C 481.12 144.80 480.51 145.43 480.20 145.75 C 479.38 145.76 477.73 145.77 476.91 145.77 C 476.53 146.26 475.78 147.24 475.41 147.73 C 474.18 147.69 472.95 147.66 471.73 147.63 C 471.31 148.01 470.48 148.78 470.07 149.16 C 469.29 149.22 467.74 149.34 466.96 149.40 C 466.53 149.73 465.65 150.39 465.21 150.72 C 463.41 150.95 461.67 151.45 460.04 152.23 C 458.95 152.30 457.88 152.39 456.81 152.48 C 456.44 152.94 455.70 153.85 455.33 154.30 C 454.45 154.27 452.69 154.21 451.82 154.18 C 451.52 154.45 450.94 154.99 450.64 155.27 C 448.92 155.56 447.17 155.94 445.77 157.05 C 444.07 157.38 442.38 157.73 440.81 158.44 C 439.64 158.62 438.48 158.80 437.33 158.99 C 436.18 160.46 434.39 160.68 432.67 160.87 C 432.21 161.14 431.27 161.68 430.81 161.95 C 429.01 162.19 427.11 162.29 425.64 163.49 C 424.30 163.61 422.95 163.70 421.62 163.80 C 421.62 164.17 421.62 164.92 421.62 165.29 C 417.01 165.23 412.39 165.24 407.78 165.28 C 407.50 164.88 406.95 164.08 406.68 163.68 C 403.75 163.63 400.69 164.16 397.91 163.05 C 394.70 161.66 390.94 162.67 387.93 160.72 C 385.81 160.64 383.70 160.62 381.59 160.58 C 381.62 160.15 381.67 159.28 381.70 158.85 C 379.33 158.71 376.75 159.06 374.72 157.56 C 373.53 157.47 372.35 157.40 371.17 157.32 C 370.12 155.55 368.06 155.51 366.27 155.12 C 364.69 154.62 363.07 154.25 361.47 153.89 C 361.45 153.63 361.42 153.10 361.41 152.84 C 356.77 151.57 352.42 149.50 348.23 147.19 C 345.51 145.32 342.66 143.67 339.89 141.89 C 338.22 140.84 336.48 139.89 334.82 138.83 C 332.39 137.20 330.12 135.36 328.00 133.36 C 327.35 133.42 326.70 133.48 326.06 133.55 C 324.73 134.45 323.44 135.40 322.10 136.29 C 317.52 138.48 313.43 141.52 309.00 143.98 C 301.45 148.63 293.56 152.70 285.93 157.20 C 285.46 157.32 284.53 157.54 284.06 157.66 C 282.10 158.80 280.13 159.91 278.13 160.98 C 273.48 163.46 268.44 165.25 264.05 168.21 C 262.27 169.02 260.44 169.73 258.59 170.34 C 258.59 170.65 258.61 171.29 258.61 171.60 C 257.97 171.63 256.70 171.69 256.06 171.72 C 255.63 172.04 254.78 172.69 254.35 173.01 C 253.23 173.44 252.14 173.93 251.08 174.46 C 249.65 174.86 248.24 175.31 246.85 175.79 C 245.84 176.42 244.85 177.09 243.88 177.80 C 242.15 178.48 240.46 179.25 238.72 179.90 C 238.35 180.20 237.62 180.80 237.26 181.10 C 235.76 181.41 234.24 181.69 232.89 182.44 C 232.25 182.53 230.98 182.71 230.35 182.79 C 230.33 183.20 230.30 184.00 230.29 184.41 C 229.57 184.44 228.13 184.50 227.41 184.53 C 227.13 184.77 226.58 185.24 226.30 185.48 C 220.44 187.22 214.96 189.98 209.30 192.25 C 208.76 192.35 207.67 192.53 207.12 192.63 C 205.39 193.56 203.60 194.40 201.90 195.39 C 200.99 195.47 200.09 195.57 199.19 195.66 C 197.38 196.64 195.50 197.51 193.77 198.64 C 193.02 198.69 191.51 198.79 190.75 198.84 C 190.23 199.12 189.19 199.68 188.67 199.97 C 186.63 200.78 184.67 201.88 182.45 202.12 C 181.58 202.36 180.72 202.66 179.89 203.00 C 178.57 203.63 177.22 204.20 175.91 204.85 C 174.32 205.27 172.71 205.59 171.15 206.15 C 169.52 206.57 167.91 207.13 166.61 208.26 C 165.76 208.43 164.91 208.60 164.07 208.78 C 162.49 209.49 160.77 209.80 159.08 210.09 C 158.66 210.33 157.84 210.81 157.43 211.05 C 155.78 211.40 154.08 211.78 152.73 212.86 C 149.13 213.35 145.76 214.73 142.39 216.00 C 139.88 216.59 137.45 217.47 134.91 217.92 C 134.51 218.28 133.72 219.00 133.33 219.36 C 130.31 219.37 127.66 220.83 124.85 221.69 C 120.33 222.14 115.77 221.87 111.27 221.37 C 110.79 220.93 109.83 220.05 109.35 219.61 C 108.35 219.52 107.35 219.44 106.35 219.35 C 103.55 217.27 100.00 216.61 96.63 216.09 C 96.24 215.71 95.47 214.96 95.09 214.58 C 84.35 213.84 73.61 216.09 62.92 214.33 C 58.08 212.66 53.51 210.37 48.96 208.04 C 46.90 206.81 44.77 205.69 42.59 204.69 C 42.48 204.23 42.26 203.32 42.15 202.86 C 40.22 201.56 38.35 200.16 36.41 198.86 C 36.38 198.29 36.31 197.14 36.27 196.57 C 34.89 196.43 33.51 196.31 32.13 196.23 C 33.23 195.41 33.64 194.31 33.35 192.93 C 32.10 192.31 30.83 191.74 29.55 191.21 C 29.62 184.66 28.90 178.12 29.19 171.56 C 30.84 171.60 32.49 171.65 34.14 171.70 C 37.96 173.64 41.96 175.46 46.38 174.77 C 46.83 175.15 47.75 175.91 48.20 176.29 C 57.91 176.28 67.61 176.26 77.31 176.31 C 78.11 175.78 78.91 175.24 79.72 174.71 C 83.63 174.78 87.56 174.77 91.48 174.74 C 91.49 174.36 91.51 173.58 91.52 173.20 C 95.10 173.01 99.09 174.02 102.23 171.79 C 104.84 171.30 108.54 172.74 110.00 169.78 C 112.07 169.75 114.13 169.76 116.20 169.78 C 116.51 169.44 117.14 168.75 117.46 168.41 C 119.08 168.44 120.70 168.48 122.33 168.52 C 123.10 167.88 123.87 167.24 124.64 166.60 C 125.70 166.54 126.77 166.46 127.83 166.38 C 133.49 164.41 139.36 163.00 145.00 160.92 C 146.06 160.67 147.12 160.41 148.18 160.16 C 148.44 159.88 148.97 159.32 149.23 159.04 C 150.82 158.68 152.42 158.29 153.93 157.65 C 155.00 157.49 156.09 157.35 157.17 157.21 C 157.51 156.78 158.19 155.92 158.53 155.49 C 159.13 155.46 160.33 155.41 160.93 155.39 C 162.59 154.47 164.47 154.16 166.32 153.86 C 166.35 153.47 166.42 152.70 166.45 152.31 C 167.11 152.33 168.42 152.37 169.08 152.39 C 170.99 151.38 172.98 150.51 174.88 149.48 C 177.16 148.93 179.38 148.19 181.59 147.42 C 181.90 147.08 182.51 146.39 182.81 146.05 C 184.32 145.73 185.86 145.45 187.28 144.81 C 187.74 144.70 188.68 144.48 189.14 144.37 C 190.80 143.42 192.51 142.57 194.12 141.53 C 194.97 141.43 195.82 141.32 196.67 141.22 C 197.11 140.89 198.00 140.24 198.45 139.92 C 199.64 139.44 200.82 138.92 201.99 138.37 C 202.45 138.29 203.37 138.11 203.82 138.02 C 204.28 137.79 205.20 137.34 205.66 137.11 C 206.77 136.45 207.87 135.77 208.98 135.10 C 210.95 134.39 212.90 133.62 214.90 133.00 C 215.97 132.44 217.05 131.91 218.14 131.40 C 219.76 130.55 221.40 129.72 222.96 128.77 C 227.00 126.96 230.96 124.97 235.04 123.25 C 236.67 122.45 238.35 121.74 240.04 121.05 C 242.03 119.98 244.02 118.92 245.97 117.78 C 247.98 116.82 249.99 115.84 251.90 114.68 C 253.98 113.57 256.05 112.43 258.03 111.14 C 259.00 110.81 259.97 110.46 260.93 110.07 C 261.94 109.39 262.95 108.70 263.93 107.97 C 265.50 107.26 267.08 106.57 268.67 105.89 C 268.64 105.54 268.58 104.84 268.55 104.49 C 269.18 104.47 270.43 104.43 271.06 104.41 C 272.38 103.54 273.72 102.70 275.07 101.86 C 278.07 100.42 280.88 98.64 283.61 96.73 C 283.92 96.63 284.53 96.41 284.84 96.31 C 286.13 95.05 287.53 93.91 288.85 92.68 C 289.89 92.07 290.95 91.50 292.00 90.91 C 292.77 90.24 293.57 89.60 294.41 89.01 C 294.42 87.90 294.43 86.79 294.44 85.68 C 295.24 85.62 296.83 85.50 297.63 85.44 C 297.38 83.92 297.21 82.40 296.93 80.90 C 298.14 80.16 299.36 79.42 300.55 78.64 C 300.28 76.95 299.98 75.26 299.66 73.58 C 300.69 73.17 301.73 72.75 302.78 72.34 C 302.71 69.49 302.70 66.64 302.68 63.79 C 303.41 63.60 304.87 63.24 305.60 63.05 C 305.63 59.32 305.62 55.59 305.60 51.86 C 306.09 51.51 307.08 50.81 307.57 50.46 C 309.84 50.58 312.13 50.69 314.39 51.02 C 314.36 54.38 314.36 57.74 314.35 61.10 C 315.06 61.44 316.48 62.13 317.19 62.48 C 316.75 64.37 317.30 66.13 318.48 67.60 C 319.06 67.64 320.22 67.73 320.80 67.77 C 320.58 68.87 320.36 69.97 320.15 71.06 C 321.21 71.31 322.27 71.57 323.34 71.82 C 323.36 72.47 323.41 73.76 323.44 74.41 C 324.87 74.96 326.30 75.52 327.77 76.00 C 329.19 75.19 330.68 74.52 332.14 73.77 C 332.14 73.18 332.15 72.00 332.15 71.42 C 332.78 71.38 334.06 71.30 334.69 71.27 C 334.64 70.55 334.54 69.12 334.49 68.40 C 335.25 68.35 336.77 68.25 337.52 68.20 C 337.50 67.05 337.48 65.91 337.46 64.76 C 338.21 64.71 339.71 64.61 340.45 64.56 C 340.45 63.83 340.45 62.38 340.45 61.65 C 341.50 61.09 342.55 60.52 343.60 59.96 C 343.57 59.22 343.51 57.74 343.48 57.00 C 344.28 56.86 345.90 56.58 346.71 56.44 C 346.68 55.86 346.62 54.72 346.58 54.15 C 347.57 53.54 348.55 52.92 349.52 52.28 C 349.51 51.43 349.48 49.71 349.47 48.86 C 350.46 48.77 351.46 48.69 352.47 48.61 C 352.43 47.30 352.39 45.98 352.36 44.66 C 353.12 44.53 354.62 44.26 355.38 44.13 C 355.35 42.79 355.33 41.46 355.31 40.13 Z"/>
        <path fill="#0d77aa" opacity="1.00"
              d=" M 715.44 79.78 C 718.86 78.92 722.82 78.26 726.11 79.87 C 728.11 80.81 727.41 83.25 726.81 84.87 C 725.10 89.01 722.48 93.19 718.09 94.84 C 717.73 98.12 717.22 101.56 718.08 104.80 C 719.99 107.91 724.92 106.03 726.75 109.24 C 727.43 111.63 727.48 114.32 726.72 116.70 C 724.95 119.98 719.99 118.08 718.07 121.19 C 717.34 125.04 717.60 129.05 717.85 132.94 C 718.90 137.15 724.88 134.82 726.75 138.25 C 727.43 140.63 727.47 143.32 726.73 145.69 C 724.95 148.98 719.99 147.08 718.07 150.17 C 717.20 152.72 717.25 156.58 720.33 157.58 C 723.55 158.58 729.32 158.40 729.67 154.01 C 729.89 130.98 729.63 107.95 729.79 84.92 C 729.54 82.66 731.65 80.77 733.86 81.03 C 745.60 80.97 757.34 80.97 769.08 81.03 C 771.39 80.50 772.06 83.15 772.02 84.92 C 772.17 107.94 771.94 130.97 772.12 153.99 C 771.95 157.07 775.88 159.08 778.37 157.34 C 780.54 156.02 780.25 153.13 780.03 150.97 C 779.69 147.40 774.13 148.64 773.79 145.04 C 773.47 142.72 773.39 140.30 774.01 138.02 C 775.12 135.67 778.75 136.26 779.80 133.82 C 780.40 129.94 780.21 125.95 779.98 122.03 C 779.80 118.38 774.08 119.66 773.79 116.02 C 773.48 113.74 773.41 111.37 773.98 109.13 C 774.99 106.64 778.75 107.31 779.81 104.85 C 780.36 101.94 780.22 98.93 780.00 96.00 C 779.78 92.36 774.03 93.66 773.78 89.98 C 773.63 87.10 772.65 82.59 775.99 81.17 C 782.02 80.77 788.09 81.04 794.14 81.09 C 794.57 83.38 794.79 85.70 794.77 88.03 C 794.72 109.38 794.78 130.73 794.73 152.08 C 794.81 153.85 794.56 156.39 796.52 157.26 C 798.22 158.25 800.95 158.11 801.70 160.27 C 802.27 162.43 802.20 164.73 801.86 166.93 C 801.17 169.42 798.28 170.17 796.00 170.06 C 764.67 170.07 733.33 170.06 701.99 170.06 C 699.71 170.16 696.64 169.57 696.05 166.96 C 695.85 164.36 695.22 161.22 696.98 159.02 C 699.21 157.74 703.20 157.56 702.94 154.08 C 703.09 132.03 702.96 109.97 702.99 87.92 C 703.02 86.26 703.01 84.43 704.13 83.06 C 707.90 81.89 713.37 84.34 715.44 79.78 M 742.24 93.40 C 740.21 93.94 739.32 96.05 739.56 98.00 C 739.54 115.68 739.60 133.36 739.54 151.04 C 739.60 152.62 739.40 154.29 739.99 155.81 C 741.23 157.83 743.78 158.02 745.92 158.00 C 750.26 157.97 754.61 158.17 758.95 157.87 C 761.42 157.77 763.45 155.55 763.05 153.05 C 763.03 134.33 763.15 115.61 762.98 96.90 C 763.12 94.34 760.31 92.96 758.09 93.09 C 752.81 93.16 747.47 92.67 742.24 93.40 Z"/>
        <path fill="#0d77aa" opacity="1.00"
              d=" M 837.18 81.28 C 840.96 80.83 846.74 79.95 848.59 84.28 C 849.08 92.51 848.76 100.79 848.76 109.04 C 848.96 114.33 842.56 116.74 842.70 122.01 C 842.50 146.36 842.72 170.71 842.59 195.06 C 842.85 198.54 839.02 200.42 836.00 200.05 C 832.65 200.50 827.64 199.37 827.86 195.10 C 827.76 174.40 827.82 153.69 827.83 132.98 C 827.75 130.51 828.07 127.97 827.44 125.55 C 826.03 121.90 820.32 123.75 819.16 119.86 C 818.45 116.78 818.34 112.16 822.12 111.10 C 825.79 110.08 831.66 112.01 833.28 107.30 C 833.92 99.89 833.15 92.42 833.60 85.00 C 833.66 83.09 835.49 81.77 837.18 81.28 Z"/>
        <path fill="#0d77aa" opacity="1.00"
              d=" M 876.49 81.65 C 878.84 80.64 881.50 80.96 884.01 81.04 C 886.55 81.09 889.18 83.15 888.85 85.89 C 888.96 100.27 888.78 114.66 888.92 129.04 C 888.67 131.84 891.40 133.87 894.00 133.90 C 898.05 134.10 902.12 134.10 906.18 133.90 C 908.73 133.87 911.38 131.83 911.19 129.09 C 911.33 115.06 911.21 101.03 911.23 87.00 C 911.27 85.46 911.14 83.60 912.52 82.54 C 914.82 80.44 918.22 81.00 921.08 81.02 C 923.71 81.00 926.48 83.06 926.21 85.91 C 926.27 101.28 926.30 116.65 926.19 132.02 C 926.07 137.59 921.17 141.24 916.80 143.78 C 909.46 147.78 900.86 145.25 892.96 146.24 C 890.73 146.56 888.72 148.53 888.92 150.88 C 888.84 161.61 888.83 172.36 888.93 183.09 C 888.68 185.90 891.41 187.88 894.00 187.90 C 903.31 188.26 912.66 187.71 921.97 188.14 C 926.53 188.44 927.57 194.25 925.66 197.57 C 923.68 200.32 919.96 199.91 917.00 199.97 C 907.97 199.82 898.94 200.21 889.92 199.90 C 884.76 199.65 880.77 196.06 877.11 192.82 C 874.90 190.86 873.75 187.91 873.82 184.98 C 873.77 173.97 873.83 162.96 873.82 151.95 C 873.77 150.42 873.81 148.62 872.48 147.58 C 868.14 143.93 860.94 148.48 857.19 143.64 C 855.79 140.67 855.87 135.70 859.60 134.46 C 862.96 133.50 866.53 134.38 869.95 133.73 C 872.09 133.29 873.99 131.37 873.78 129.08 C 873.90 114.69 873.72 100.31 873.85 85.93 C 873.67 84.07 874.81 82.38 876.49 81.65 Z"/>
        <path fill="#0d77aa" opacity="1.00"
              d=" M 744.29 97.35 C 748.17 96.66 752.18 96.99 756.12 97.08 C 758.21 97.10 760.41 98.71 760.35 100.96 C 760.71 103.88 760.66 108.14 756.99 108.80 C 752.79 109.20 748.44 109.40 744.28 108.62 C 741.05 107.53 741.48 103.62 741.64 100.91 C 741.58 99.27 742.79 97.87 744.29 97.35 Z"/>
        <path fill="#0d77aa" opacity="1.00"
              d=" M 741.64 114.36 C 746.35 113.23 751.24 113.47 756.05 113.64 C 757.93 113.68 760.49 114.72 760.32 117.00 C 760.48 124.99 760.32 132.99 760.39 140.98 C 760.57 145.63 758.21 150.87 753.54 152.40 C 750.01 153.45 746.27 152.87 742.65 153.02 C 741.97 151.08 741.50 149.06 741.60 146.99 C 741.65 136.12 741.59 125.24 741.64 114.36 M 750.88 124.56 C 749.34 131.03 749.58 137.97 750.72 144.49 C 752.42 141.99 752.21 138.90 752.22 136.02 C 752.13 132.18 752.67 128.11 750.88 124.56 Z"/>
        <path fill="#0d77aa" opacity="1.00"
              d=" M 711.50 175.64 C 715.83 174.45 720.51 174.97 724.96 175.21 C 728.99 176.61 725.24 180.83 724.37 183.35 C 721.77 187.56 721.10 194.00 715.76 195.68 C 711.53 196.40 707.22 195.63 702.96 195.64 C 700.56 195.51 697.19 195.64 696.14 192.94 C 695.70 190.76 695.62 188.42 696.27 186.28 C 697.72 183.72 701.04 184.27 703.45 183.43 C 707.59 182.52 707.63 176.99 711.50 175.64 Z"/>
        <path fill="#0d77aa" opacity="1.00"
              d=" M 772.34 175.36 C 776.66 174.72 781.17 174.78 785.51 175.32 C 790.04 176.14 789.95 182.41 794.34 183.40 C 796.91 184.25 800.87 183.79 801.84 187.03 C 802.10 189.23 802.30 191.59 801.59 193.73 C 799.55 196.93 795.21 195.86 792.03 196.09 C 787.36 195.82 781.35 197.27 778.11 192.89 C 775.55 188.24 773.46 183.31 771.32 178.45 C 770.59 177.31 771.13 175.90 772.34 175.36 Z"/>
        <path fill="#0d77aa" opacity="1.00"
              d=" M 345.08 192.18 C 352.47 190.77 360.34 191.58 367.18 194.79 C 371.36 196.66 376.05 198.47 378.18 202.88 C 380.82 208.56 382.50 214.64 384.59 220.54 C 386.37 224.89 384.36 229.52 384.61 234.01 C 384.80 239.45 383.00 244.69 380.44 249.42 C 376.08 257.52 371.91 265.85 365.96 272.94 C 358.75 279.45 351.90 286.45 343.62 291.64 C 337.11 296.84 329.03 299.39 322.41 304.40 C 305.97 310.62 289.00 315.41 272.25 320.76 C 274.94 331.21 278.22 342.11 285.68 350.24 C 289.54 355.04 295.37 357.66 300.81 360.23 C 311.32 365.44 324.00 366.14 335.01 362.06 C 340.58 360.34 346.32 359.01 351.51 356.26 C 354.60 354.54 357.93 353.34 361.28 352.24 C 361.40 351.70 361.64 350.63 361.76 350.10 C 365.74 348.57 368.99 345.72 372.85 343.95 C 379.69 338.33 387.92 334.40 393.74 327.59 C 398.82 322.75 403.94 317.96 408.10 312.26 C 412.10 309.09 415.14 304.81 417.89 300.55 C 418.92 300.17 419.97 299.80 421.01 299.43 C 421.91 297.87 422.82 296.32 423.73 294.77 C 424.13 294.75 424.92 294.70 425.31 294.68 C 425.32 295.22 425.35 296.31 425.36 296.86 C 421.13 304.87 416.43 312.66 410.58 319.60 C 425.33 308.69 439.80 297.42 454.40 286.30 C 489.02 261.00 526.59 239.17 567.28 225.23 C 572.56 223.03 578.21 222.00 583.88 221.42 C 596.50 219.59 609.31 218.64 622.06 219.51 C 627.27 220.18 632.76 220.83 637.29 223.73 C 640.97 226.05 642.49 230.98 641.21 235.07 C 639.58 240.76 635.85 245.53 632.16 250.04 C 628.27 254.98 622.62 257.99 617.34 261.20 C 595.66 273.96 570.75 280.14 545.96 283.17 C 545.48 282.75 544.50 281.91 544.02 281.50 C 536.17 282.35 528.45 284.64 521.46 288.31 C 504.99 296.25 489.63 306.27 474.45 316.42 C 445.33 336.28 417.15 357.49 389.83 379.76 C 385.34 383.33 381.19 387.56 375.84 389.84 C 363.46 395.44 351.26 401.90 337.76 404.35 C 325.64 406.13 313.51 409.38 301.17 407.98 C 289.95 407.33 279.03 403.99 268.99 399.03 C 265.67 397.55 262.35 395.93 259.70 393.39 C 256.58 390.41 252.86 387.82 250.89 383.87 C 243.77 378.44 239.86 370.06 237.24 361.72 C 233.51 350.32 228.14 339.25 227.42 327.10 C 224.36 326.11 221.10 326.35 217.94 326.46 C 208.30 326.86 198.79 325.32 189.25 324.22 C 183.40 323.11 177.32 322.72 171.97 319.87 C 170.06 319.68 168.13 319.45 166.38 318.60 C 156.50 314.16 146.45 310.04 136.78 305.17 C 133.13 302.42 129.04 299.42 127.67 294.84 C 127.00 292.88 126.24 290.94 125.80 288.92 C 125.95 286.83 127.50 285.06 127.54 282.96 C 126.93 279.23 125.65 275.66 124.64 272.04 C 124.01 269.64 127.18 268.80 128.56 267.49 C 137.67 268.41 145.12 274.46 153.97 276.32 C 157.09 276.95 160.54 278.19 163.50 276.34 C 161.29 275.18 159.04 274.12 156.80 273.04 C 155.50 270.08 154.16 267.12 153.44 263.97 C 153.75 262.04 155.02 260.45 155.88 258.74 C 158.19 258.13 160.52 256.98 162.98 257.49 C 169.96 258.43 176.96 259.64 183.50 262.37 C 189.05 262.35 193.71 265.72 199.08 266.58 C 202.48 267.29 205.51 269.23 209.01 269.54 C 212.71 269.96 216.26 271.10 219.89 271.85 C 224.65 272.99 230.11 271.65 234.22 274.92 C 228.42 278.19 221.41 279.68 214.82 278.83 C 213.83 279.20 212.84 279.60 211.86 279.99 C 221.11 282.45 230.82 283.03 240.28 281.55 C 245.43 272.16 250.68 262.82 256.82 254.03 C 260.77 251.89 262.06 247.21 265.48 244.45 C 269.88 238.67 275.24 233.73 280.67 228.93 C 285.47 223.92 290.96 219.60 296.63 215.62 C 298.87 213.58 300.84 211.17 303.59 209.77 C 308.65 207.09 312.87 202.88 318.42 201.15 C 326.90 197.13 335.91 194.18 345.08 192.18 M 327.73 214.82 C 313.20 220.16 301.70 231.22 291.65 242.62 C 286.32 251.06 281.17 259.68 277.01 268.77 C 275.92 270.76 276.44 273.08 276.33 275.24 C 286.09 272.76 295.73 269.83 305.15 266.22 C 311.28 264.58 316.47 260.73 322.57 259.02 C 326.21 257.14 329.46 254.55 333.38 253.16 C 340.52 248.17 347.29 242.61 353.48 236.46 C 357.50 232.34 359.94 227.06 362.44 221.96 C 362.45 218.82 363.00 215.50 361.46 212.60 C 360.03 208.17 354.44 208.72 350.77 207.89 C 342.84 209.23 334.96 211.21 327.73 214.82 Z"/>
        <path fill="#0d77aa" opacity="1.00"
              d=" M 722.29 238.12 C 723.42 233.05 729.15 233.90 733.09 234.01 C 735.38 233.89 738.25 235.49 738.00 238.11 C 737.63 241.94 734.42 244.50 731.66 246.76 C 728.73 249.31 725.00 251.01 721.08 251.03 C 715.03 251.10 708.98 251.11 702.93 251.03 C 700.53 251.20 697.60 249.76 697.65 247.03 C 697.49 244.32 697.03 240.33 700.34 239.34 C 707.58 238.14 715.14 240.14 722.29 238.12 Z"/>
        <path fill="#0d77aa" opacity="1.00"
              d=" M 744.48 234.70 C 746.14 233.77 748.14 234.06 749.98 233.97 C 765.69 234.06 781.41 233.93 797.12 234.03 C 799.35 233.92 801.95 235.45 801.97 237.90 C 802.29 240.80 802.39 245.00 798.77 245.77 C 791.26 246.68 783.60 245.43 776.09 246.38 C 772.34 247.44 772.62 251.98 772.46 255.09 C 772.13 257.17 774.10 258.76 776.03 258.86 C 781.70 259.30 787.41 258.74 793.09 259.08 C 795.12 259.14 797.32 260.74 797.25 262.95 C 797.55 269.26 797.04 275.59 797.44 281.90 C 797.28 284.99 801.92 284.98 801.90 288.00 C 802.06 290.21 802.28 292.52 801.63 294.67 C 800.32 297.06 797.31 297.09 794.94 297.08 C 779.28 297.02 763.61 297.11 747.95 297.04 C 745.48 297.23 742.37 295.88 742.41 293.04 C 742.29 290.51 741.80 287.05 744.53 285.68 C 747.72 284.26 752.34 286.03 754.54 282.59 C 755.36 279.56 756.03 276.18 755.30 273.10 C 752.76 269.21 746.58 272.86 744.14 268.78 C 743.42 266.39 743.37 263.67 744.15 261.30 C 746.89 257.00 753.05 260.71 756.41 257.43 C 757.85 256.04 757.71 253.84 758.00 252.01 C 758.20 250.12 758.36 247.67 756.33 246.69 C 752.08 244.72 745.51 248.20 742.69 243.37 C 742.21 240.53 741.49 236.42 744.48 234.70 M 773.39 271.48 C 769.55 272.96 770.20 277.79 769.85 281.09 C 769.54 283.39 771.90 284.91 773.95 284.95 C 776.69 285.08 780.26 285.45 782.02 282.81 C 782.90 280.00 782.57 276.92 782.32 274.03 C 781.11 270.44 776.36 270.63 773.39 271.48 Z"/>
        <path fill="#0d77aa" opacity="1.00"
              d=" M 850.57 238.10 C 851.50 236.29 852.52 233.99 854.97 234.10 C 858.03 234.01 861.37 233.46 864.27 234.73 C 867.52 236.47 866.03 240.82 864.04 242.98 C 860.19 246.78 855.76 250.94 849.99 250.98 C 842.30 251.15 834.60 251.06 826.92 251.03 C 824.70 251.13 821.87 250.14 821.54 247.64 C 821.23 244.74 820.79 240.51 824.28 239.35 C 832.96 238.06 841.98 240.24 850.57 238.10 Z"/>
        <path fill="#0d77aa" opacity="1.00"
              d=" M 873.23 235.20 C 874.77 233.75 877.04 234.07 878.99 233.97 C 893.03 234.05 907.07 233.94 921.10 234.02 C 923.38 233.87 926.18 235.35 926.12 237.93 C 926.29 250.96 926.12 264.00 926.20 277.04 C 926.37 279.77 925.47 282.53 923.51 284.47 C 920.03 287.91 916.02 291.38 910.95 291.90 C 904.00 292.43 897.01 291.68 890.07 292.24 C 887.81 292.52 886.44 294.74 886.76 296.91 C 886.78 309.94 886.67 322.98 886.81 336.01 C 886.61 338.27 888.84 339.84 890.91 339.89 C 901.57 340.33 912.29 339.60 922.94 340.22 C 926.55 340.97 926.48 345.16 926.16 348.05 C 926.24 350.68 923.40 352.15 921.08 351.98 C 910.34 352.04 899.60 351.99 888.87 352.00 C 883.09 352.19 878.42 348.28 874.51 344.51 C 872.53 342.57 871.79 339.75 871.93 337.04 C 871.95 318.03 871.93 299.01 871.94 280.00 C 883.33 279.97 894.72 280.06 906.11 279.97 C 908.43 280.08 911.37 278.72 911.31 276.04 C 911.43 267.35 911.42 258.64 911.31 249.95 C 911.46 247.61 909.06 246.12 906.97 246.12 C 896.95 245.90 886.93 246.22 876.92 246.01 C 874.61 246.14 871.88 244.62 871.97 242.04 C 871.99 239.79 871.29 236.88 873.23 235.20 Z"/>
        <path fill="#0d77aa" opacity="1.00"
              d=" M 698.32 256.44 C 700.46 255.74 702.77 256.05 704.99 255.98 C 715.34 256.12 725.69 255.80 736.03 256.12 C 740.02 256.41 740.23 261.03 739.79 264.06 C 739.88 266.55 737.32 268.08 735.07 268.00 C 724.02 268.15 712.96 268.02 701.91 268.06 C 699.60 268.14 696.48 267.60 695.87 264.95 C 695.51 262.04 694.93 257.79 698.32 256.44 Z"/>
        <path fill="#0d77aa" opacity="1.00"
              d=" M 822.35 256.40 C 824.50 255.77 826.80 256.04 829.03 255.98 C 840.71 256.11 852.39 255.83 864.07 256.10 C 868.82 256.42 868.56 262.32 867.68 265.70 C 866.42 268.12 863.37 268.05 861.03 268.08 C 849.01 268.01 836.99 268.13 824.97 268.02 C 822.56 268.20 819.63 266.75 819.77 264.00 C 819.61 261.33 819.19 257.51 822.35 256.40 Z"/>
        <path fill="#0d77aa" opacity="1.00"
              d=" M 701.20 274.28 C 710.74 273.59 720.37 274.22 729.96 273.97 C 732.58 273.88 736.38 273.87 737.22 277.05 C 737.37 279.78 738.26 283.65 735.42 285.32 C 733.13 286.40 730.49 285.96 728.06 286.08 C 719.67 285.97 711.29 286.19 702.92 285.99 C 700.70 286.04 698.19 284.55 698.16 282.13 C 697.84 279.27 697.73 275.22 701.20 274.28 Z"/>
        <path fill="#0d77aa" opacity="1.00"
              d=" M 825.19 274.25 C 837.13 273.70 849.15 274.09 861.13 274.05 C 864.34 273.82 866.20 277.07 865.68 279.96 C 866.17 282.83 864.36 286.10 861.16 285.96 C 850.08 286.19 838.98 286.02 827.89 286.05 C 825.41 286.27 822.20 284.97 822.21 282.08 C 821.99 279.27 821.62 275.07 825.19 274.25 Z"/>
        <path fill="#0d77aa" opacity="1.00"
              d=" M 701.22 291.28 C 710.78 290.60 720.42 291.21 730.02 290.97 C 732.63 290.88 736.36 290.89 737.21 294.03 C 737.38 296.78 738.27 300.74 735.34 302.37 C 733.03 303.39 730.41 302.96 727.98 303.08 C 719.62 302.97 711.25 303.19 702.89 302.99 C 700.67 303.04 698.16 301.52 698.16 299.09 C 697.83 296.24 697.75 292.19 701.22 291.28 Z"/>
        <path fill="#0d77aa" opacity="1.00"
              d=" M 825.19 292.26 C 835.75 291.62 846.39 292.21 856.99 291.97 C 859.68 292.10 863.25 291.38 864.99 294.04 C 866.03 296.13 865.69 298.63 865.46 300.87 C 864.99 303.28 862.24 304.14 860.08 304.04 C 849.37 304.09 838.66 304.06 827.95 304.05 C 825.75 304.15 822.84 303.45 822.32 300.96 C 822.00 297.94 821.37 293.29 825.19 292.26 Z"/>
        <path fill="#0d77aa" opacity="1.00"
              d=" M 746.34 303.36 C 747.83 302.90 749.42 303.01 750.97 302.97 C 765.35 303.04 779.72 302.97 794.10 303.00 C 796.55 302.74 799.75 304.13 799.69 306.98 C 799.83 317.33 799.74 327.69 799.73 338.04 C 799.85 342.76 795.74 345.82 792.45 348.49 C 789.61 351.00 785.80 352.12 782.05 352.01 C 770.99 351.98 759.93 352.03 748.88 351.99 C 746.51 352.18 743.48 350.83 743.58 348.08 C 743.40 334.70 743.53 321.32 743.51 307.94 C 743.28 305.95 744.41 303.98 746.34 303.36 M 761.26 315.38 C 759.75 315.88 758.39 317.21 758.40 318.89 C 758.22 324.57 758.25 330.27 758.38 335.95 C 758.25 338.40 760.77 339.93 762.97 339.93 C 768.68 340.07 774.39 340.05 780.10 339.94 C 782.31 339.99 784.97 338.53 784.88 336.04 C 784.93 330.04 785.15 324.01 784.75 318.02 C 783.87 315.19 780.47 314.90 777.98 315.04 C 772.41 315.25 766.78 314.64 761.26 315.38 Z"/>
        <path fill="#0d77aa" opacity="1.00"
              d=" M 699.71 306.99 C 711.17 307.06 722.63 306.89 734.09 307.06 C 736.12 306.94 736.72 309.38 736.72 310.98 C 736.79 320.00 736.77 329.03 736.73 338.05 C 736.72 343.26 731.92 346.45 728.26 349.33 C 722.33 353.55 714.71 351.53 707.96 352.02 C 704.92 351.95 700.19 352.74 699.14 348.92 C 698.65 340.62 699.08 332.28 698.94 323.97 C 699.12 318.31 698.35 312.55 699.71 306.99 M 716.25 319.31 C 714.34 320.01 713.65 322.13 713.77 324.00 C 713.77 328.31 713.52 332.65 713.95 336.94 C 714.58 340.96 721.04 340.84 721.76 336.95 C 722.13 332.30 721.97 327.61 721.87 322.95 C 721.98 320.17 718.71 318.24 716.25 319.31 Z"/>
        <path fill="#0d77aa" opacity="1.00"
              d=" M 823.00 321.02 C 823.04 316.67 822.68 312.27 823.61 307.99 C 836.45 308.06 849.29 307.91 862.13 308.05 C 864.77 307.85 865.01 311.08 865.00 312.98 C 864.99 321.37 865.05 329.75 864.97 338.14 C 865.05 342.89 860.90 345.96 857.56 348.62 C 850.94 354.09 841.80 351.33 833.99 352.01 C 830.44 351.64 824.57 353.45 823.15 348.96 C 822.77 339.66 823.12 330.33 823.00 321.02 M 840.38 320.40 C 838.86 320.92 837.51 322.25 837.68 323.96 C 837.58 328.29 837.44 332.63 837.79 336.95 C 838.39 339.64 841.69 340.14 844.02 340.04 C 846.54 340.23 850.16 339.16 850.10 336.06 C 850.16 331.48 850.59 326.79 849.76 322.26 C 847.69 319.32 843.46 319.81 840.38 320.40 Z"/>
    </g>
</svg>
