<?xml version="1.0" encoding="UTF-8" ?>
<!DOCTYPE svg PUBLIC "-//W3C//DTD SVG 1.1//EN" "http://www.w3.org/Graphics/SVG/1.1/DTD/svg11.dtd">
<svg width="898pt" height="369pt" viewBox="0 0 898 369" version="1.1" xmlns="http://www.w3.org/2000/svg">
    <g id="#efe9f7ff">
        <path fill="#efe9f7" opacity="1.00"
              d=" M 325.98 0.00 L 332.84 0.00 C 333.52 11.30 331.42 23.30 335.80 34.07 C 337.01 39.17 339.89 43.74 344.04 46.92 C 353.94 54.70 364.10 62.49 375.96 67.04 C 386.20 70.82 395.55 76.72 406.07 79.78 C 417.49 83.01 428.62 87.19 440.18 89.90 C 448.97 92.52 458.10 93.86 466.78 96.81 C 469.06 102.78 461.91 102.87 458.65 104.61 C 445.19 108.79 431.49 112.34 418.42 117.68 C 410.57 119.90 402.99 123.06 395.02 124.88 C 387.44 126.07 379.62 126.23 372.05 124.84 C 359.90 122.88 347.47 121.17 336.19 115.97 C 327.67 112.88 319.71 108.53 311.34 105.11 C 311.75 104.98 312.17 104.85 312.59 104.73 C 308.46 102.54 304.93 99.47 301.18 96.72 C 300.00 96.09 298.72 94.66 297.27 95.34 C 291.58 97.62 286.93 101.79 281.49 104.56 C 256.11 120.22 229.04 132.95 201.67 144.70 C 179.69 153.12 158.26 163.21 135.54 169.55 C 119.01 174.72 102.84 183.06 85.02 181.90 C 80.19 181.54 75.92 179.01 71.32 177.71 C 57.06 172.59 41.20 178.86 27.14 172.81 C 17.80 169.42 10.37 162.69 2.62 156.75 C 2.47 155.87 2.32 154.99 2.17 154.11 C 1.62 153.48 0.54 152.22 0.00 151.59 L 0.00 130.63 C 25.97 138.10 53.48 135.11 79.53 129.53 C 98.23 126.09 116.46 120.34 133.93 112.90 C 152.33 105.87 170.79 98.86 188.41 90.02 C 195.68 86.18 203.40 83.29 210.74 79.59 C 219.73 75.00 228.58 70.15 237.29 65.04 C 246.63 59.76 257.14 55.74 263.95 47.00 C 271.39 36.28 274.61 23.25 275.75 10.40 C 278.23 10.30 283.18 10.12 285.65 10.03 C 286.17 13.60 286.67 17.18 287.67 20.65 C 289.99 26.29 293.96 30.99 297.99 35.48 C 301.02 32.45 303.65 29.06 306.30 25.70 C 310.11 21.11 314.88 17.28 317.99 12.13 C 320.45 7.96 322.80 3.69 325.98 0.00 Z"/>
        <path fill="#efe9f7" opacity="1.00"
              d=" M 673.96 43.10 C 682.51 41.39 691.01 38.63 699.86 39.43 C 699.10 46.68 694.00 52.07 688.87 56.70 C 688.82 59.05 689.00 61.38 689.40 63.68 C 693.10 67.13 701.29 67.59 698.95 74.91 C 697.72 80.98 686.22 78.99 688.92 87.02 C 684.92 97.12 702.51 93.72 698.95 103.91 C 697.97 108.77 690.82 108.20 689.02 112.12 C 688.31 118.22 696.20 117.74 700.11 116.49 C 699.95 97.99 700.06 79.50 699.87 61.00 C 700.06 54.28 699.37 47.32 701.40 40.80 C 715.18 41.00 728.98 41.03 742.78 41.05 C 742.91 41.82 743.17 43.37 743.30 44.14 C 744.04 43.20 744.78 42.25 745.52 41.30 C 752.33 41.14 759.15 41.03 765.99 40.93 C 766.14 64.31 765.84 87.68 765.92 111.05 C 764.76 118.11 776.91 118.06 773.92 125.89 C 773.52 130.66 767.54 131.01 763.99 130.86 C 735.65 131.32 707.31 130.82 678.98 131.09 C 675.03 130.76 667.65 131.96 666.31 126.61 C 662.83 118.34 676.28 117.11 673.90 109.01 C 674.36 87.05 673.80 65.07 673.96 43.10 M 743.98 50.99 C 743.95 57.00 743.93 63.01 743.96 69.03 C 746.60 66.73 751.42 65.28 751.10 61.05 C 752.93 55.47 747.20 53.68 743.98 50.99 M 712.44 53.69 C 711.31 57.34 710.74 61.14 710.92 64.98 C 710.78 81.76 711.20 98.55 710.86 115.34 C 716.95 118.72 724.34 118.93 730.95 116.98 C 734.78 115.51 733.77 110.01 734.06 107.04 C 734.09 92.02 734.28 77.01 733.88 62.00 C 733.56 59.64 734.15 55.99 731.74 54.34 C 725.39 53.18 718.83 54.07 712.44 53.69 M 743.98 76.98 C 743.94 83.99 743.93 91.00 743.97 98.02 C 747.56 95.26 753.39 93.04 751.08 87.03 C 752.92 81.45 747.19 79.67 743.98 76.98 M 743.56 105.89 C 743.83 109.70 744.33 113.48 745.06 117.23 C 747.36 117.24 750.54 116.57 750.99 113.88 C 751.60 109.50 746.24 108.18 743.56 105.89 Z"/>
        <path fill="#efe9f7" opacity="1.00"
              d=" M 806.33 40.68 C 810.94 41.18 815.69 41.28 820.26 42.33 C 820.11 50.88 820.33 59.45 819.74 67.98 C 820.59 74.55 813.41 78.45 814.23 85.02 C 813.30 106.67 814.51 128.36 814.00 150.03 C 814.04 153.59 813.56 157.14 812.54 160.55 C 808.40 158.95 799.62 162.94 798.48 156.60 C 797.19 132.73 798.40 108.79 798.01 84.89 C 795.23 83.84 792.44 82.80 789.63 81.85 C 789.69 78.66 788.68 75.22 790.22 72.27 C 793.98 69.10 800.34 71.56 803.69 67.72 C 804.24 59.60 804.11 51.46 804.21 43.33 C 804.91 42.45 805.61 41.56 806.33 40.68 Z"/>
        <path fill="#efe9f7" opacity="1.00"
              d=" M 844.54 44.45 C 844.87 42.72 845.83 40.41 848.02 40.88 C 851.49 41.71 857.74 38.84 859.58 43.36 C 861.41 59.40 858.23 75.88 861.15 91.80 C 865.58 94.76 871.38 93.66 876.39 93.53 C 878.99 93.39 881.66 91.74 881.76 88.88 C 882.85 73.26 880.83 57.50 882.88 41.93 C 887.00 40.77 891.33 41.01 895.58 40.49 C 896.37 41.77 897.18 43.06 898.00 44.34 L 898.00 93.77 C 895.63 99.14 891.23 103.96 885.35 105.35 C 877.35 107.04 869.13 106.95 861.02 107.40 C 860.02 118.58 859.42 129.82 859.92 141.05 C 860.07 143.52 861.00 146.73 863.94 147.03 C 875.20 148.63 886.67 148.02 898.00 149.24 L 898.00 157.59 C 891.79 161.55 883.91 159.81 876.99 160.36 C 869.74 160.02 862.25 160.62 855.18 158.77 C 849.44 156.20 843.94 150.71 844.00 144.06 C 843.66 131.99 843.93 119.90 843.44 107.83 C 838.38 106.90 832.82 107.27 828.27 104.70 C 826.26 102.02 827.54 98.24 827.25 95.11 C 832.48 93.57 839.71 95.18 843.61 90.67 C 845.05 75.33 842.94 59.81 844.54 44.45 Z"/>
        <path fill="#efe9f7" opacity="1.00"
              d=" M 713.48 56.75 C 718.88 56.88 724.29 57.02 729.72 57.15 C 730.62 57.90 731.53 58.64 732.46 59.39 C 731.48 62.10 733.04 66.99 729.66 68.65 C 723.77 71.19 716.91 69.79 711.25 67.23 C 711.85 63.71 712.50 60.19 713.48 56.75 Z"/>
        <path fill="#efe9f7" opacity="1.00"
              d=" M 712.01 73.68 C 718.73 73.25 725.52 73.19 732.18 74.41 C 732.05 84.46 732.41 94.55 731.45 104.58 C 730.88 109.55 726.51 114.38 720.98 113.09 C 718.58 112.10 714.09 114.58 712.27 111.69 C 711.51 99.03 712.03 86.35 712.01 73.68 M 720.64 100.75 C 721.27 101.10 722.54 101.80 723.17 102.15 C 722.86 97.11 722.37 92.08 721.91 87.06 C 721.17 91.59 720.97 96.18 720.64 100.75 Z"/>
        <path fill="#efe9f7" opacity="1.00"
              d=" M 681.44 135.42 C 687.10 134.92 692.81 134.97 698.51 134.93 C 697.08 141.10 695.00 147.25 691.63 152.65 C 690.17 155.01 687.57 156.40 684.82 156.45 C 678.73 156.41 672.68 155.70 666.63 155.16 C 666.70 151.88 665.62 148.32 667.23 145.30 C 670.01 143.38 673.45 142.75 676.51 141.33 C 678.01 139.26 679.37 136.99 681.44 135.42 Z"/>
        <path fill="#efe9f7" opacity="1.00"
              d=" M 741.27 134.85 C 747.44 136.27 756.32 132.11 760.79 138.20 C 763.79 142.36 768.68 143.93 773.39 145.20 C 771.94 148.45 775.29 155.38 770.15 156.20 C 763.71 157.06 756.08 158.42 750.22 154.74 C 745.36 149.20 743.11 141.86 741.27 134.85 Z"/>
        <path fill="#efe9f7" opacity="1.00"
              d=" M 314.44 151.44 C 324.81 148.43 335.98 151.59 344.84 157.23 C 350.44 160.51 352.16 167.21 354.23 172.91 C 360.02 186.99 356.92 203.39 349.10 216.06 C 339.58 235.40 321.89 249.04 303.57 259.54 C 285.64 270.75 264.51 274.58 244.71 281.22 C 246.61 288.28 247.98 295.75 252.00 302.02 C 261.44 318.75 282.87 326.81 301.29 322.24 C 313.15 319.32 325.11 315.40 335.14 308.21 C 343.31 302.73 351.83 297.71 359.48 291.49 C 370.78 281.78 379.65 269.69 390.05 259.10 C 392.42 256.64 395.24 254.66 398.24 253.04 C 396.16 260.91 391.41 267.61 387.13 274.40 C 404.10 262.40 419.85 248.75 437.06 237.08 C 464.26 218.44 493.04 201.83 523.78 189.76 C 546.57 179.84 572.17 176.19 596.80 179.32 C 604.56 179.05 613.75 184.47 613.51 192.99 C 611.75 203.77 603.54 211.95 594.89 217.84 C 574.69 231.81 550.57 238.49 526.64 242.57 C 519.89 243.52 513.75 246.47 507.97 249.93 C 510.12 247.34 512.26 244.75 514.39 242.13 C 496.93 245.16 481.47 254.31 466.80 263.79 C 444.22 277.48 422.51 292.60 401.82 309.00 C 388.41 318.33 375.61 328.50 363.29 339.22 C 355.77 344.96 348.23 351.07 339.25 354.35 C 331.36 357.41 323.79 361.42 315.54 363.46 C 307.18 365.58 298.71 367.22 290.28 369.00 L 267.51 369.00 C 256.49 367.14 245.73 363.55 236.04 357.96 C 227.55 353.52 221.40 345.86 215.48 338.57 C 210.41 332.41 208.13 324.71 205.55 317.32 C 202.26 307.48 198.36 297.73 197.12 287.35 C 173.36 287.66 148.67 285.62 127.00 275.05 C 117.92 270.45 106.84 268.15 100.43 259.59 C 96.62 255.74 97.12 249.92 96.93 244.99 C 96.89 239.96 94.50 235.29 94.44 230.28 C 97.11 225.59 103.15 227.20 107.37 228.59 C 115.00 231.68 122.58 234.99 130.66 236.77 C 127.32 233.10 123.58 228.81 123.71 223.54 C 123.97 218.63 129.20 215.83 133.67 216.35 C 147.84 218.17 161.20 223.39 174.95 227.00 C 184.78 229.73 194.86 231.44 204.93 233.01 C 204.99 233.81 205.11 235.40 205.17 236.20 C 200.37 237.83 195.57 239.42 190.77 241.03 C 197.37 240.96 203.98 240.89 210.58 240.82 C 217.32 228.26 224.82 216.02 234.41 205.41 C 245.35 192.01 258.90 181.12 272.49 170.55 C 284.65 160.87 299.55 155.29 314.44 151.44 M 290.49 179.59 C 280.27 185.57 271.39 193.69 263.69 202.62 C 257.11 212.41 251.23 222.85 247.43 234.05 C 262.79 230.06 277.88 224.91 292.36 218.38 C 307.29 211.40 321.45 201.38 330.07 187.04 C 332.93 182.48 333.66 176.03 330.56 171.44 C 327.64 169.15 323.67 169.20 320.15 169.37 C 309.69 170.76 299.86 174.93 290.49 179.59 Z"/>
        <path fill="#efe9f7" opacity="1.00"
              d=" M 695.86 194.33 C 700.23 194.51 705.05 193.03 709.19 195.04 C 710.76 203.45 702.11 209.32 695.09 211.17 C 685.91 212.42 675.89 213.21 667.24 209.23 C 667.84 205.77 668.48 202.31 669.44 198.92 C 678.03 198.25 689.26 201.90 695.86 194.33 Z"/>
        <path fill="#efe9f7" opacity="1.00"
              d=" M 714.46 193.83 C 733.26 194.38 752.09 193.41 770.88 194.20 C 776.02 194.68 771.62 202.03 773.04 204.90 C 764.81 208.92 754.97 205.64 746.22 207.32 C 743.76 210.00 744.27 214.05 743.49 217.43 C 751.95 218.94 760.73 218.17 769.08 220.37 C 770.25 228.63 765.81 239.13 772.14 245.98 C 772.42 248.59 772.97 253.82 773.24 256.43 C 756.99 259.15 740.37 258.02 723.97 257.91 C 719.81 258.21 715.95 256.82 712.23 255.22 C 713.64 252.81 711.92 248.54 714.27 246.40 C 717.59 244.77 721.50 244.51 724.75 242.67 C 725.77 239.63 725.84 236.38 726.34 233.24 C 721.91 232.04 717.46 230.99 713.24 229.17 C 714.45 226.61 713.09 222.70 715.20 220.39 C 718.75 219.01 722.79 218.94 726.19 217.13 C 728.92 215.53 728.47 211.79 728.99 209.02 C 723.60 206.85 717.58 206.70 712.25 204.24 C 712.85 200.74 713.50 197.25 714.46 193.83 M 744.27 232.02 C 742.11 233.80 741.49 236.62 741.20 239.31 C 740.13 243.75 746.64 245.78 749.93 244.01 C 754.20 242.60 752.66 236.53 753.87 233.53 C 750.77 232.62 747.50 231.99 744.27 232.02 Z"/>
        <path fill="#efe9f7" opacity="1.00"
              d=" M 823.86 194.33 C 827.75 194.39 831.79 193.55 835.68 194.33 C 839.66 196.08 837.63 201.08 835.59 203.61 C 831.67 207.80 826.55 211.28 820.62 211.55 C 810.88 212.09 800.28 213.95 791.27 209.16 C 791.85 205.71 792.50 202.26 793.45 198.88 C 803.26 197.72 816.16 202.77 823.86 194.33 Z"/>
        <path fill="#efe9f7" opacity="1.00"
              d=" M 844.31 194.39 C 862.14 192.99 880.16 193.77 898.00 195.21 L 898.00 239.89 C 894.71 245.23 890.44 250.49 883.95 251.86 C 875.62 253.50 867.02 253.01 858.59 253.66 C 857.97 267.42 857.31 281.22 858.10 294.99 C 858.02 297.13 859.80 298.83 861.83 299.16 C 873.78 300.88 886.11 298.90 898.00 301.28 L 898.00 310.84 C 883.83 312.29 869.47 312.96 855.28 311.48 C 848.04 309.76 841.36 302.85 842.17 294.99 C 841.43 276.69 842.15 258.38 842.04 240.08 C 853.81 240.02 865.64 240.57 877.38 239.36 C 879.67 239.12 881.90 237.46 881.99 235.01 C 882.57 225.99 882.62 216.82 881.11 207.90 C 869.55 205.53 857.45 208.11 845.83 206.18 C 840.88 205.00 840.62 197.14 844.31 194.39 Z"/>
        <path fill="#efe9f7" opacity="1.00"
              d=" M 667.46 215.85 C 681.26 216.17 695.09 215.47 708.88 216.20 C 714.00 216.69 709.63 224.03 711.06 226.89 C 704.87 229.88 697.61 228.64 691.01 229.20 C 682.42 228.94 673.26 229.96 665.24 226.25 C 665.84 222.75 666.49 219.27 667.46 215.85 Z"/>
        <path fill="#efe9f7" opacity="1.00"
              d=" M 791.46 215.83 C 807.14 216.04 822.83 216.05 838.52 215.89 C 839.33 220.27 841.78 227.55 835.38 228.39 C 820.20 228.62 803.82 231.71 789.24 226.26 C 789.83 222.75 790.50 219.25 791.46 215.83 Z"/>
        <path fill="#efe9f7" opacity="1.00"
              d=" M 668.96 244.89 C 669.09 240.09 666.50 231.72 675.01 234.08 C 686.57 233.88 698.49 232.79 709.86 235.50 C 708.59 238.41 710.27 244.66 705.94 245.96 C 698.81 247.75 691.25 246.97 683.98 247.12 C 678.97 246.70 673.55 247.31 668.96 244.89 Z"/>
        <path fill="#efe9f7" opacity="1.00"
              d=" M 792.98 244.84 C 793.08 240.10 790.52 231.65 799.01 234.10 C 810.90 233.59 822.81 234.01 834.71 234.14 C 835.62 234.89 836.53 235.64 837.46 236.39 C 836.45 239.07 838.06 244.02 834.66 245.65 C 829.08 247.76 822.80 246.66 817.01 247.19 C 809.07 246.67 800.38 248.57 792.98 244.84 Z"/>
        <path fill="#efe9f7" opacity="1.00"
              d=" M 668.96 261.89 C 669.09 257.09 666.50 248.72 675.01 251.08 C 686.57 250.88 698.49 249.79 709.86 252.50 C 708.59 255.41 710.27 261.66 705.94 262.96 C 698.81 264.75 691.25 263.97 683.98 264.12 C 678.97 263.70 673.55 264.31 668.96 261.89 Z"/>
        <path fill="#efe9f7" opacity="1.00"
              d=" M 792.98 262.84 C 793.08 258.10 790.52 249.65 799.01 252.10 C 810.90 251.59 822.81 252.01 834.71 252.14 C 835.62 252.89 836.53 253.64 837.46 254.39 C 836.45 257.07 838.06 262.02 834.66 263.65 C 829.08 265.76 822.80 264.66 817.01 265.19 C 809.07 264.67 800.38 266.57 792.98 262.84 Z"/>
        <path fill="#efe9f7" opacity="1.00"
              d=" M 716.28 263.12 C 734.50 263.13 752.77 262.30 770.97 263.64 C 770.86 276.06 771.61 288.51 770.80 300.91 C 768.99 305.51 764.68 309.09 760.27 311.18 C 751.93 312.49 743.40 312.04 735.00 312.22 C 727.93 311.96 720.64 312.81 713.82 310.58 C 714.03 295.48 713.95 280.38 714.10 265.28 C 714.82 264.56 715.54 263.84 716.28 263.12 M 730.01 276.78 C 729.96 283.98 729.93 291.17 729.89 298.38 C 738.15 300.51 746.86 300.22 755.18 298.43 C 755.09 291.40 755.26 284.36 754.69 277.35 C 753.54 274.38 748.55 277.26 747.02 275.90 C 741.32 275.91 735.66 276.32 730.01 276.78 Z"/>
        <path fill="#efe9f7" opacity="1.00"
              d=" M 669.84 267.05 C 682.13 267.11 694.47 266.40 706.75 267.22 C 709.52 271.66 707.29 277.98 708.24 282.99 C 707.15 290.53 711.08 300.50 704.20 306.18 C 695.90 315.86 681.39 310.72 670.43 312.23 C 668.29 297.30 668.20 282.04 669.84 267.05 M 684.80 281.47 C 684.80 285.49 684.80 293.51 684.80 297.53 C 687.18 297.92 691.46 300.83 691.87 296.88 C 692.32 291.29 692.75 285.31 690.99 279.90 C 688.87 280.19 686.82 280.82 684.80 281.47 Z"/>
        <path fill="#efe9f7" opacity="1.00"
              d=" M 794.02 268.01 C 808.00 267.98 821.98 267.97 835.97 268.01 C 836.02 278.02 836.29 288.04 836.07 298.05 C 836.15 304.22 830.51 308.93 825.28 311.20 C 815.40 312.70 805.29 312.37 795.36 311.75 C 795.08 311.48 794.54 310.93 794.27 310.66 C 793.46 296.45 794.10 282.22 794.02 268.01 M 810.57 280.21 C 808.70 285.71 808.87 291.57 808.51 297.30 C 812.09 298.99 817.23 301.24 820.21 297.27 C 822.16 292.71 820.72 287.31 821.45 282.52 C 817.90 281.49 814.16 280.85 810.57 280.21 Z"/>
    </g>
</svg>
